<svg width="44" height="44" viewBox="0 0 44 44" fill="none" xmlns="http://www.w3.org/2000/svg">
<g clip-path="url(#clip0_2036_769)">
<path d="M38.3801 10.6899L28.0679 0.377695C27.8272 0.136898 27.4986 0 27.1562 0H9.10938C6.97701 0 5.24219 1.73482 5.24219 3.86719V40.1328C5.24219 42.2652 6.97701 44 9.10938 44H34.8906C37.023 44 38.7578 42.2652 38.7578 40.1328V11.6016C38.7578 11.2501 38.6103 10.92 38.3801 10.6899ZM28.4453 4.40112L34.3567 10.3125H29.7344C29.0236 10.3125 28.4453 9.73423 28.4453 9.02344V4.40112ZM34.8906 41.4219H9.10938C8.39859 41.4219 7.82031 40.8436 7.82031 40.1328V3.86719C7.82031 3.1564 8.39859 2.57812 9.10938 2.57812H25.8672V9.02344C25.8672 11.1558 27.602 12.8906 29.7344 12.8906H36.1797V40.1328C36.1797 40.8436 35.6014 41.4219 34.8906 41.4219Z" fill="white"/>
<path d="M29.7344 18.2188H14.2656C13.5537 18.2188 12.9766 18.7959 12.9766 19.5078C12.9766 20.2197 13.5537 20.7969 14.2656 20.7969H29.7344C30.4463 20.7969 31.0234 20.2197 31.0234 19.5078C31.0234 18.7959 30.4463 18.2188 29.7344 18.2188Z" fill="white"/>
<path d="M29.7344 23.375H14.2656C13.5537 23.375 12.9766 23.9522 12.9766 24.6641C12.9766 25.376 13.5537 25.9531 14.2656 25.9531H29.7344C30.4463 25.9531 31.0234 25.376 31.0234 24.6641C31.0234 23.9522 30.4463 23.375 29.7344 23.375Z" fill="white"/>
<path d="M29.7344 28.5312H14.2656C13.5537 28.5312 12.9766 29.1084 12.9766 29.8203C12.9766 30.5322 13.5537 31.1094 14.2656 31.1094H29.7344C30.4463 31.1094 31.0234 30.5322 31.0234 29.8203C31.0234 29.1084 30.4463 28.5312 29.7344 28.5312Z" fill="white"/>
<path d="M24.5781 33.6875H14.2656C13.5537 33.6875 12.9766 34.2647 12.9766 34.9766C12.9766 35.6885 13.5537 36.2656 14.2656 36.2656H24.5781C25.29 36.2656 25.8672 35.6885 25.8672 34.9766C25.8672 34.2647 25.29 33.6875 24.5781 33.6875Z" fill="white"/>
</g>
<defs>
<clipPath id="clip0_2036_769">
<rect width="44" height="44" fill="white"/>
</clipPath>
</defs>
</svg>
