<svg width="23" height="24" viewBox="0 0 23 24" fill="none" xmlns="http://www.w3.org/2000/svg">
<path d="M10.2695 23.7712C10.418 23.9219 10.6074 24 10.7969 24C10.9864 24 11.1758 23.9219 11.3243 23.7712C11.6674 23.414 19.7579 14.9972 19.7579 9.76744C19.7579 4.3814 15.7382 0 10.7969 0C5.85557 0 1.83594 4.3814 1.83594 9.76744C1.83594 14.9972 9.9264 23.414 10.2695 23.7712ZM10.7969 1.67442C14.8933 1.67442 18.2217 5.30233 18.2217 9.76744C18.2217 13.2447 13.2752 19.3116 10.7969 21.9963C8.31855 19.3116 3.3721 13.2502 3.3721 9.76744C3.3721 5.30233 6.70046 1.67442 10.7969 1.67442Z" fill="white"/>
<path d="M14.8488 9.76759C14.8488 7.45689 13.1283 5.58154 11.0084 5.58154C8.88847 5.58154 7.16797 7.45689 7.16797 9.76759C7.16797 12.0783 8.88847 13.9536 11.0084 13.9536C13.1283 13.9536 14.8488 12.0783 14.8488 9.76759ZM8.70413 9.76759C8.70413 8.3834 9.73848 7.25596 11.0084 7.25596C12.2783 7.25596 13.3126 8.3834 13.3126 9.76759C13.3126 11.1518 12.2783 12.2792 11.0084 12.2792C9.73848 12.2792 8.70413 11.1518 8.70413 9.76759Z" fill="white"/>
</svg>
