<svg width="19" height="20" viewBox="0 0 19 20" fill="none" xmlns="http://www.w3.org/2000/svg">
<path d="M17.3913 4.21436L17.107 4.30449L15.593 4.43938L15.1653 5.1223L14.855 5.02371L13.6501 3.93732L13.4753 3.37235L13.2412 2.76988L12.4838 2.09059L11.5904 1.91577L11.5698 2.32468L12.4451 3.17879L12.8734 3.68327L12.3919 3.9349L11.9999 3.81937L11.4126 3.57439L11.4325 3.10075L10.6619 2.78379L10.406 3.8974L9.62936 4.07342L9.70618 4.69465L10.7182 4.88942L10.893 3.89679L11.7283 4.02019L12.1167 4.24763H12.7397L13.1662 5.10174L14.2967 6.24861L14.2138 6.69442L13.3023 6.57828L11.7271 7.37371L10.5929 8.73411L10.4454 9.33659H10.0383L9.27973 8.98696L8.54297 9.33659L8.72625 10.1139L9.04684 9.74429L9.6106 9.72674L9.57129 10.4248L10.0383 10.5615L10.5046 11.0853L11.2662 10.8712L12.136 11.0085L13.1462 11.2801L13.6507 11.3394L14.506 12.3102L16.1567 13.2811L15.0891 15.3208L13.9622 15.8446L13.5345 17.0102L11.9037 18.0991L11.7301 18.7269C15.8991 17.7228 19.0003 13.9779 19.0003 9.50051C18.9991 7.5449 18.4063 5.72478 17.3913 4.21436Z" fill="white"/>
<path d="M10.5923 14.4663L9.90027 13.1834L10.5354 11.8599L9.90027 11.6699L9.18711 10.9537L7.60713 10.5993L7.08268 9.50198V10.1535H6.85162L5.49 8.30732V6.79086L4.49193 5.16793L2.90711 5.45042H1.83948L1.30233 5.09837L1.98768 4.55518L1.30415 4.71305C0.480285 6.12003 0 7.75264 0 9.50138C0 14.7476 4.253 19.0024 9.49983 19.0024C9.9039 19.0024 10.3001 18.9667 10.6921 18.9196L10.5929 17.7684C10.5929 17.7684 11.029 16.059 11.029 16.0009C11.0284 15.9423 10.5923 14.4663 10.5923 14.4663Z" fill="white"/>
<path d="M3.52925 3.06378L5.2169 2.82848L5.99479 2.40203L6.87007 2.65427L8.26858 2.57684L8.74766 1.82375L9.44631 1.93868L11.143 1.77959L11.6106 1.26422L12.2699 0.823863L13.2027 0.964198L13.5426 0.912782C12.3141 0.334505 10.947 0 9.49833 0C6.54948 0 3.91276 1.34407 2.17188 3.45454H2.17671L3.52925 3.06378ZM9.89998 0.944842L10.8702 0.410722L11.4933 0.770633L10.5914 1.45719L9.73 1.54369L9.34227 1.29205L9.89998 0.944842ZM7.02614 1.02287L7.4544 1.20132L8.01513 1.02287L8.32061 1.55215L7.02614 1.8921L6.4037 1.52796C6.4031 1.52796 7.01222 1.13599 7.02614 1.02287Z" fill="white"/>
</svg>
