<svg width="23" height="24" viewBox="0 0 23 24" fill="none" xmlns="http://www.w3.org/2000/svg">
<g clip-path="url(#clip0_2027_414)">
<path d="M20.8482 3.5625H2.00893C0.898973 3.5625 0 4.51228 0 5.67188V18.3281C0 19.4946 0.90558 20.4375 2.00893 20.4375H20.8482C21.9489 20.4375 22.8571 19.4986 22.8571 18.3281V5.67188C22.8571 4.51434 21.9617 3.5625 20.8482 3.5625ZM20.5669 4.96875C20.1564 5.39742 13.093 12.775 12.8491 13.0297C12.4696 13.4281 11.9652 13.6475 11.4286 13.6475C10.892 13.6475 10.3875 13.4281 10.0068 13.0284C9.84277 12.8571 2.85728 5.56097 2.29027 4.96875H20.5669ZM1.33929 18.0419V5.95898L7.1267 12.0037L1.33929 18.0419ZM2.29112 19.0312L8.07625 12.9955L9.06103 14.0241C9.69344 14.6881 10.5342 15.0538 11.4286 15.0538C12.3229 15.0538 13.1637 14.6881 13.7949 14.0254L14.7809 12.9955L20.566 19.0312H2.29112ZM21.5179 18.0419L15.7304 12.0037L21.5179 5.95898V18.0419Z" fill="white"/>
</g>
<defs>
<clipPath id="clip0_2027_414">
<rect width="22.8571" height="24" fill="white"/>
</clipPath>
</defs>
</svg>
